<svg version="1.0" xmlns="http://www.w3.org/2000/svg" width="300.000000pt" height="195.000000pt" viewBox="0 0 300.000000 195.000000" preserveAspectRatio="xMidYMid meet">
<metadata>
Created by potrace 1.10, written by Peter Selinger 2001-2011
</metadata>
<g transform="translate(0.000000,195.000000) scale(0.100000,-0.100000)"
fill="#000000" stroke="none">
<path d="M448 1568 c-56 -15 -88 -58 -88 -119 0 -40 5 -54 25 -73 34 -32 63
-36 234 -36 128 0 149 3 171 19 24 19 23 19 -165 21 -179 1 -191 2 -212 22
-25 24 -30 73 -10 99 27 35 53 39 269 39 l214 0 -2 -42 c-1 -24 2 -48 8 -55 6
-8 6 -19 -2 -32 -6 -12 -7 -21 -3 -21 4 0 1 -5 -7 -10 -13 -9 -13 -11 0 -20 8
-5 11 -10 7 -10 -18 0 15 -39 42 -48 26 -9 36 -7 68 15 21 14 31 18 24 9 -11
-13 -11 -16 0 -16 14 0 -50 -65 -214 -215 -84 -77 -101 -105 -74 -122 7 -5
-17 -10 -58 -14 -45 -3 -6 -6 113 -7 154 -2 182 0 182 13 0 12 -23 15 -121 17
l-121 3 186 170 186 170 -40 18 -41 18 -30 -25 c-36 -30 -38 -31 -67 -10 -26
18 -28 42 -5 82 17 29 17 31 0 50 -23 26 -21 58 5 76 29 21 31 20 66 -9 l29
-24 58 23 c56 23 57 24 34 37 -30 18 -603 23 -661 7z"/>
<path d="M1850 1570 c0 -5 13 -10 29 -10 51 0 69 -55 21 -67 -11 -3 -20 -12
-20 -21 0 -8 -8 -21 -17 -28 -15 -11 -16 -15 -4 -23 11 -7 11 -16 -4 -54 -23
-60 -14 -105 27 -143 17 -16 46 -44 64 -62 27 -26 34 -30 34 -16 0 16 1 16 15
-2 20 -27 19 1 -2 34 -10 15 -35 50 -56 79 -65 88 -60 179 12 212 21 9 36 22
33 29 -2 8 2 10 13 6 33 -13 -8 36 -47 57 -40 20 -98 26 -98 9z"/>
<path d="M1801 1543 c-26 -32 -36 -67 -26 -90 6 -16 8 -16 18 -3 7 8 20 22 30
29 17 13 18 13 15 -4 -4 -25 19 -31 27 -6 4 12 0 30 -9 43 -9 12 -16 30 -16
40 0 26 -15 22 -39 -9z"/>
<path d="M934 1505 c-3 -8 4 -28 16 -44 l21 -30 -22 -30 c-20 -27 -21 -61 -1
-61 4 0 21 13 36 29 l29 30 51 -27 c44 -23 63 -27 141 -27 94 0 143 16 205 65
l25 20 -30 25 c-85 70 -242 85 -344 33 l-49 -26 -28 29 c-31 33 -42 36 -50 14z
m334 -3 c13 -4 -17 -7 -65 -8 -54 0 -76 2 -58 7 38 9 93 9 123 1z m42 -42 c14
-14 28 -18 45 -14 15 4 32 1 40 -6 14 -11 13 -15 -5 -27 -11 -8 -25 -11 -32
-7 -6 4 -8 3 -5 -3 8 -13 -31 -30 -97 -42 -47 -9 -63 -8 -131 5 -34 7 -125 53
-125 64 0 4 26 15 58 24 31 10 62 19 67 21 6 2 45 4 88 4 65 1 80 -2 97 -19z"/>
<path d="M1930 1438 c-33 -35 -28 -105 12 -159 18 -24 45 -66 61 -94 l28 -50
-7 45 c-3 25 -13 59 -20 75 l-14 30 4 -27 c2 -16 2 -28 1 -28 -2 0 -17 21 -34
47 -37 55 -42 120 -13 146 27 25 49 21 82 -15 34 -39 48 -95 49 -197 0 -40 2
-76 6 -79 25 -26 34 145 10 217 -32 97 -115 142 -165 89z"/>
<path d="M1440 1430 c0 -15 5 -20 18 -18 9 2 17 10 17 18 0 8 -8 16 -17 18
-13 2 -18 -3 -18 -18z"/>
<path d="M1390 1361 c0 -11 25 -32 31 -26 3 2 5 -5 5 -15 0 -10 -2 -17 -5 -15
-6 6 -31 -15 -31 -26 0 -14 26 -10 40 6 11 13 16 13 42 -1 45 -23 129 -21 178
5 22 11 47 21 55 21 8 0 15 5 15 10 0 6 -7 10 -15 10 -9 0 -32 8 -53 19 -23
11 -60 18 -97 19 -53 0 -56 -1 -20 -7 22 -4 54 -14 72 -23 29 -14 31 -14 25 0
-5 14 -4 15 10 2 15 -14 15 -16 1 -27 -28 -21 -82 -26 -143 -13 -67 14 -69 27
-7 37 41 7 41 7 12 13 -16 4 -36 2 -43 -3 -8 -7 -18 -4 -30 7 -20 17 -42 21
-42 7z"/>
<path d="M590 1165 c-214 -192 -246 -232 -235 -299 8 -52 21 -74 58 -96 31
-19 60 -20 1085 -20 1153 0 1105 -2 1136 59 20 38 20 74 1 110 -20 40 -71 61
-149 61 l-66 0 0 -78 c0 -47 -5 -83 -12 -90 -17 -17 3 -14 26 3 13 10 19 27
19 52 0 33 4 39 26 44 25 6 25 7 -5 8 -19 1 -34 7 -38 17 -5 14 3 16 70 12 65
-3 79 -7 95 -27 27 -32 24 -77 -6 -106 l-24 -25 -1064 0 -1064 0 -21 23 c-15
16 -23 39 -25 69 -1 26 0 45 3 43 3 -2 12 6 20 18 12 20 12 21 -3 8 -22 -17
-22 -7 -1 14 12 11 19 13 24 5 5 -7 11 -5 21 6 11 15 12 16 0 10 -9 -6 -12 -5
-9 5 3 8 12 13 20 13 8 -1 46 29 85 65 38 36 52 51 31 32 -21 -19 -40 -32 -43
-29 -3 3 35 42 85 88 50 45 93 80 96 78 2 -3 -14 -22 -36 -42 -22 -20 -37 -36
-33 -36 5 1 44 35 88 77 72 69 81 86 13 24 -16 -14 -28 -20 -28 -13 0 6 11 19
24 27 14 9 32 27 41 41 37 56 -19 15 -205 -151z m328 -392 c-75 -2 -201 -2
-280 0 -79 1 -17 3 137 3 154 0 218 -2 143 -3z m510 0 c-21 -2 -57 -2 -80 0
-24 2 -7 4 37 4 44 0 63 -2 43 -4z"/>
<path d="M912 1225 c-45 -41 -80 -75 -76 -75 4 0 26 17 48 38 23 20 61 54 85
75 23 20 39 37 34 37 -4 -1 -45 -34 -91 -75z"/>
<path d="M2020 1266 c10 -20 21 -59 25 -86 4 -28 11 -50 17 -50 6 0 7 19 3 53
-8 59 -15 75 -44 101 l-20 18 19 -36z"/>
<path d="M1064 1240 c-22 -9 -53 -73 -61 -126 -2 -17 3 -46 11 -65 l15 -34 -5
35 c-5 39 15 121 32 127 7 2 26 -8 43 -23 50 -41 47 -22 -4 25 -41 38 -46 47
-20 41 6 -1 51 -3 101 -4 82 -1 95 -4 131 -29 22 -15 49 -43 59 -62 18 -34 34
-46 34 -25 0 18 64 81 103 101 33 17 51 20 111 15 39 -3 87 -6 106 -6 37 -1
111 -36 117 -57 3 -9 -5 -9 -31 2 -41 17 -112 20 -121 4 -6 -9 13 -42 61 -104
15 -20 16 -19 47 16 18 19 37 44 43 54 10 17 12 16 22 -14 11 -32 10 -33 -19
-44 -21 -8 -29 -17 -27 -31 4 -27 24 -31 31 -6 12 47 116 60 153 19 16 -18 18
-18 40 6 29 32 67 22 72 -19 4 -30 22 -36 22 -7 0 25 35 50 61 44 12 -4 22
-17 26 -34 l5 -29 28 30 c40 42 99 42 142 0 21 -22 39 -30 64 -30 19 0 34 4
34 8 0 17 -101 63 -167 77 -45 10 -131 15 -252 15 l-183 0 -57 58 c-43 46 -66
61 -101 69 -55 13 -637 16 -666 3z m388 -27 c9 -5 -51 -73 -64 -73 -13 0 -67
64 -61 73 5 8 110 8 125 0z"/>
<path d="M1137 1193 c-38 -10 -10 -27 41 -24 104 5 178 -71 170 -173 -8 -92
-68 -146 -163 -146 -50 0 -89 16 -119 49 -11 12 -23 21 -28 21 -18 0 -6 -30
22 -53 116 -98 301 -29 318 118 14 131 -113 241 -241 208z"/>
<path d="M1535 1188 c-88 -31 -129 -97 -123 -193 3 -50 10 -70 32 -100 107
-140 346 -67 346 106 0 36 -2 40 -15 29 -8 -7 -15 -27 -15 -44 0 -76 -71 -136
-161 -136 -71 0 -115 28 -147 92 -27 54 -24 102 8 156 31 51 65 67 144 68 73
1 99 17 45 28 -43 8 -78 6 -114 -6z"/>
<path d="M900 1100 l-95 -90 79 2 79 3 12 48 c14 55 2 62 -22 12 -12 -25 -23
-35 -40 -35 -13 0 -23 2 -23 5 0 3 18 24 40 46 46 46 85 99 73 99 -4 -1 -51
-41 -103 -90z"/>
<path d="M715 1044 l-80 -76 83 73 c73 64 88 79 80 79 -2 0 -39 -34 -83 -76z"/>
<path d="M1500 1085 c0 -22 4 -26 23 -23 14 2 22 10 22 23 0 13 -8 21 -22 23
-19 3 -23 -1 -23 -23z"/>
<path d="M1640 1094 c-11 -12 -10 -18 3 -32 16 -15 18 -15 34 0 13 14 14 20 3
32 -7 9 -16 16 -20 16 -4 0 -13 -7 -20 -16z"/>
<path d="M1250 1084 c-11 -12 -10 -18 3 -32 16 -15 18 -15 34 0 13 14 14 20 3
32 -7 9 -16 16 -20 16 -4 0 -13 -7 -20 -16z"/>
<path d="M1100 1074 c-11 -12 -10 -18 3 -32 16 -15 18 -15 34 0 13 14 14 20 3
32 -7 9 -16 16 -20 16 -4 0 -13 -7 -20 -16z"/>
<path d="M1538 1039 c-25 -14 -22 -36 8 -55 19 -13 22 -19 12 -25 -24 -16 -57
-9 -69 13 -7 13 -14 18 -16 11 -3 -7 1 -21 7 -32 12 -23 68 -29 86 -11 8 8 15
6 24 -5 8 -9 29 -15 57 -15 73 0 119 64 74 104 -26 24 -48 11 -63 -37 -10 -34
-18 -42 -37 -42 -33 0 -38 21 -6 29 34 9 42 32 20 56 -20 22 -68 26 -97 9z
m182 -52 c0 -15 -31 -47 -46 -47 -10 0 -11 6 -5 23 5 12 12 30 15 41 5 15 9
16 21 6 8 -7 15 -17 15 -23z"/>
<path d="M1880 1030 c-18 -18 -20 -31 -18 -108 2 -69 6 -87 18 -87 11 0 15 10
14 38 -1 34 1 37 25 37 35 0 51 -17 51 -52 0 -19 5 -28 16 -28 13 0 15 8 10
43 -7 53 -7 54 0 98 5 31 2 39 -21 58 -35 27 -69 27 -95 1z m85 -40 c9 -28
-11 -50 -45 -50 -25 0 -27 3 -24 33 1 17 3 33 3 35 1 1 14 2 30 2 21 0 32 -6
36 -20z"/>
<path d="M2057 1044 c-4 -4 -7 -27 -7 -51 0 -36 6 -50 30 -75 20 -20 30 -40
30 -60 0 -40 24 -32 28 9 2 20 12 37 28 47 21 15 24 24 24 77 0 74 -23 79 -28
7 -3 -51 -21 -73 -51 -63 -16 5 -21 16 -23 57 -3 48 -15 68 -31 52z"/>
<path d="M2275 1025 c-22 -22 -25 -32 -25 -104 0 -46 5 -83 11 -86 16 -11 23
3 21 40 -3 34 -2 35 37 35 39 0 40 -1 43 -37 2 -20 9 -38 16 -41 9 -3 12 19
12 86 0 86 -1 92 -26 111 -35 27 -59 26 -89 -4z m79 -31 c16 -41 7 -54 -34
-54 -35 0 -40 3 -40 23 0 13 5 28 12 35 17 17 55 15 62 -4z"/>
<path d="M970 1005 c0 -10 10 -15 30 -15 35 0 40 15 8 24 -34 9 -38 8 -38 -9z"/>
<path d="M1072 1008 c-17 -17 -15 -31 9 -62 16 -21 29 -26 63 -26 23 0 47 5
52 10 8 8 19 7 37 -1 23 -10 30 -9 47 6 11 10 20 25 20 33 0 12 -5 10 -20 -6
-24 -26 -30 -27 -54 -9 -16 12 -16 14 -2 26 25 21 19 31 -18 31 -40 0 -52 -12
-31 -30 23 -19 19 -42 -7 -38 -16 2 -26 14 -34 38 -12 37 -40 50 -62 28z m47
-39 c14 -41 14 -41 -8 -30 -21 12 -34 38 -25 52 10 17 22 9 33 -22z"/>
<path d="M980 965 c0 -19 11 -19 36 0 18 14 18 14 -8 15 -18 0 -28 -5 -28 -15z"/>
<path d="M1810 965 c0 -41 -62 -124 -115 -153 -32 -18 7 -15 41 3 37 19 68 19
84 0 7 -8 19 -15 27 -15 12 0 12 3 -1 16 -12 11 -16 36 -16 90 0 43 -4 74 -10
74 -5 0 -10 -7 -10 -15z"/>
<path d="M1011 941 c-17 -13 -20 -20 -12 -26 11 -6 40 20 41 38 0 10 -2 9 -29
-12z"/>
<path d="M2026 886 c6 -51 5 -61 -11 -72 -24 -17 -2 -18 26 -1 17 10 23 10 26
0 3 -7 12 -13 21 -13 12 0 13 3 4 12 -7 7 -12 24 -12 40 0 15 -6 31 -13 35 -7
4 -21 19 -30 33 -17 25 -17 24 -11 -34z"/>
<path d="M1360 883 c-19 -26 -51 -54 -70 -65 -43 -22 -21 -24 36 -2 24 9 44
24 47 35 6 23 23 25 31 4 3 -10 -1 -15 -12 -16 -9 0 6 -7 33 -15 63 -19 105
-27 85 -17 -42 22 -73 49 -93 84 l-23 38 -34 -46z"/>
<path d="M2193 899 c-13 -15 -23 -36 -23 -47 0 -11 -7 -28 -16 -36 -12 -13
-12 -16 -2 -16 8 0 20 6 26 12 10 10 17 10 32 0 11 -6 25 -12 32 -12 9 0 8 3
-2 10 -9 5 -17 31 -20 63 l-5 53 -22 -27z"/>
<path d="M487 902 c-10 -10 -17 -25 -17 -33 0 -8 6 -3 13 11 11 21 21 26 72
31 l60 6 -56 1 c-43 2 -60 -2 -72 -16z"/>
<path d="M787 913 l173 -3 15 -30 c9 -16 16 -33 17 -37 3 -10 76 -43 96 -43 8
0 -3 13 -25 29 -22 16 -50 43 -62 60 l-22 31 -182 -2 -182 -2 172 -3z"/>
<path d="M1920 852 c0 -15 -5 -33 -12 -40 -9 -9 -4 -12 26 -12 34 0 36 1 22
16 -9 8 -16 26 -16 40 0 13 -4 24 -10 24 -5 0 -10 -13 -10 -28z"/>
<path d="M2310 852 c0 -15 -5 -33 -12 -40 -9 -9 -4 -12 26 -12 34 0 36 1 22
16 -9 8 -16 26 -16 40 0 13 -4 24 -10 24 -5 0 -10 -13 -10 -28z"/>
<path d="M510 540 c0 -6 16 -8 42 -4 47 8 46 6 -9 -62 -18 -23 -33 -45 -33
-51 0 -5 23 -10 50 -12 60 -2 68 16 9 21 l-41 3 41 51 c23 29 41 55 41 58 0 3
-22 6 -50 6 -27 0 -50 -5 -50 -10z"/>
<path d="M709 529 c-28 -28 -22 -76 12 -102 43 -32 99 -2 99 54 0 60 -69 90
-111 48z m89 -11 c15 -13 16 -43 2 -69 -7 -13 -21 -19 -45 -19 -24 0 -38 6
-45 19 -33 63 31 113 88 69z"/>
<path d="M929 532 c-26 -22 -31 -75 -8 -97 26 -26 63 -28 92 -5 36 29 36 71 1
99 -33 26 -55 26 -85 3z m89 -20 c26 -34 -1 -82 -48 -82 -33 0 -50 17 -50 51
0 52 65 72 98 31z"/>
<path d="M1137 543 c-11 -10 -8 -123 3 -123 6 0 10 9 10 20 0 28 36 26 61 -2
l20 -23 -11 24 c-7 14 -8 26 -3 30 21 14 22 42 3 61 -19 19 -70 27 -83 13z
m75 -21 c20 -20 4 -47 -30 -50 -31 -3 -32 -2 -32 31 0 32 2 35 26 32 14 -1 30
-7 36 -13z"/>
<path d="M1311 545 c-1 -6 10 -26 23 -46 13 -19 26 -46 29 -60 4 -23 4 -23 6
-1 0 12 13 41 27 63 14 23 23 43 21 45 -3 3 -15 -12 -28 -32 -22 -36 -23 -37
-38 -17 -9 12 -21 29 -28 39 -6 11 -12 14 -12 9z"/>
<path d="M1511 493 c-17 -34 -31 -68 -30 -75 0 -7 5 -3 11 10 14 28 81 32 97
5 5 -10 11 -16 14 -13 2 3 -11 34 -28 70 l-32 65 -32 -62z m55 -30 c-2 -3 -15
-3 -28 -1 -24 3 -24 4 -10 38 l14 35 14 -34 c8 -19 12 -36 10 -38z"/>
<path d="M1807 543 c-11 -10 -8 -123 3 -123 6 0 10 9 10 20 0 15 7 20 28 20
15 0 33 5 40 12 18 18 14 56 -7 68 -22 11 -64 13 -74 3z m67 -16 c29 -21 16
-51 -22 -55 -31 -3 -32 -2 -32 32 0 40 20 48 54 23z"/>
<path d="M1999 546 c-2 -2 -2 -34 -1 -70 l4 -66 38 0 c21 0 42 5 45 10 4 6
-10 10 -34 10 -37 0 -41 3 -41 24 0 20 6 25 33 29 l32 4 -32 1 c-29 2 -33 6
-33 28 0 25 2 26 35 21 19 -3 35 -2 35 4 0 9 -72 13 -81 5z"/>
<path d="M2164 543 c4 -4 15 -8 24 -8 13 0 18 -13 23 -60 l6 -60 1 64 c2 58 4
63 22 58 11 -3 20 -1 20 4 0 5 -23 9 -52 9 -28 0 -48 -3 -44 -7z"/>
<path d="M2350 535 c-19 -23 -7 -47 30 -60 50 -17 46 -40 -7 -39 -45 1 -49
-10 -8 -20 65 -16 89 48 26 69 -19 6 -37 17 -39 24 -6 19 18 31 48 25 20 -4
22 -3 10 5 -21 15 -45 14 -60 -4z"/>
<path d="M360 495 c-17 -20 -5 -45 20 -45 11 0 23 7 26 15 6 15 -11 45 -26 45
-4 0 -13 -7 -20 -15z"/>
<path d="M2540 495 c-17 -20 -5 -45 20 -45 11 0 23 7 26 15 6 15 -11 45 -26
45 -4 0 -13 -7 -20 -15z"/>
</g>
</svg>
